<svg xmlns="http://www.w3.org/2000/svg" fill="none" viewBox="0 0 512 512"><ellipse cx="251.115" cy="292.116" fill="#BBF7D0" rx="233.471" ry="192.901"/><circle cx="116.776" cy="143.118" r="42.562" fill="#fff"/><path fill="#BBF7D0" d="M.804 144.732q0-51.074 35.752-84.273 35.753-33.2 81.72-33.199 45.967 0 81.294 33.199 35.327 32.773 35.327 83.848 0 35.326-18.302 62.992-18.302 27.24-44.69 40.434-25.963 12.77-54.055 12.769-28.09 0-54.48-13.62-26.388-14.046-44.69-40.86Q.804 178.782.804 144.732m88.955 30.645q13.62 10.215 27.666 10.215 14.045 0 28.091-10.64t14.046-31.496-13.195-31.071q-13.194-10.215-28.517-10.215t-28.516 10.641q-13.195 10.64-13.195 31.496 0 20.43 13.62 31.07"/><circle cx="117.156" cy="142.78" r="31.528" fill="#fff"/><path fill="#16A34A" d="M31.25 143.976q0-37.833 26.484-62.425 26.483-24.591 60.533-24.592t60.218 24.592q26.168 24.276 26.168 62.11 0 26.168-13.557 46.661-13.557 20.177-33.104 29.951-19.232 9.458-40.04 9.458t-40.356-10.089q-19.547-10.404-33.104-30.266-13.241-20.178-13.241-45.4m65.893 22.7q10.089 7.566 20.493 7.566 10.405 0 20.809-7.881t10.404-23.331-9.774-23.015q-9.773-7.567-21.123-7.567t-21.124 7.882-9.773 23.331q0 15.132 10.088 23.015"/><circle cx="393.88" cy="143.118" r="42.562" fill="#fff"/><path fill="#BBF7D0" d="M277.907 144.733q0-51.075 35.752-84.274t81.72-33.199q45.967 0 81.294 33.199Q512 93.232 512 144.307q0 35.327-18.302 62.992-18.302 27.24-44.69 40.435-25.963 12.768-54.055 12.768-28.09 0-54.48-13.62-26.388-14.044-44.69-40.86-17.876-27.24-17.876-61.289m88.955 30.644q13.62 10.215 27.666 10.215 14.045 0 28.091-10.64t14.046-31.496-13.195-31.071-28.517-10.215-28.516 10.641q-13.195 10.64-13.195 31.496 0 20.43 13.62 31.07"/><circle cx="394.057" cy="141.633" r="31.528" fill="#fff"/><path fill="#16A34A" d="M307.814 142.829q0-37.833 26.483-62.425 26.484-24.591 60.533-24.591t60.218 24.591q26.168 24.277 26.168 62.11 0 26.168-13.556 46.661-13.557 20.178-33.105 29.951-19.232 9.459-40.04 9.459t-40.355-10.089q-19.547-10.404-33.104-30.267-13.242-20.178-13.242-45.4m65.893 22.7q10.089 7.567 20.493 7.567t20.808-7.882q10.404-7.883 10.404-23.331t-9.773-23.015q-9.774-7.566-21.124-7.566t-21.123 7.881q-9.774 7.882-9.774 23.331 0 15.134 10.089 23.015"/><path stroke="#16A34A" stroke-linecap="round" stroke-width="23.646" d="M329.448 243.329c0 21.792-32.299 39.409-72.251 39.409s-72.251-17.617-72.251-39.409"/></svg>